<svg width="16" height="12" viewBox="0 0 16 12" fill="none" xmlns="http://www.w3.org/2000/svg">
<path d="M5.44999 9.70002L14.525 0.625024C14.6761 0.475024 14.8556 0.400024 15.0633 0.400024C15.2711 0.400024 15.45 0.475466 15.6 0.626349C15.75 0.777216 15.825 0.956382 15.825 1.16385C15.825 1.3713 15.75 1.55002 15.6 1.70002L5.97499 11.325C5.82499 11.475 5.64999 11.55 5.44999 11.55C5.24999 11.55 5.07499 11.475 4.92499 11.325L0.374993 6.77502C0.224993 6.62391 0.154159 6.44447 0.162493 6.2367C0.170826 6.02892 0.250434 5.85002 0.401317 5.70002C0.552184 5.55002 0.731351 5.47502 0.938817 5.47502C1.14627 5.47502 1.32499 5.55002 1.47499 5.70002L5.44999 9.70002Z" fill="white"/>
</svg>
