<svg width="26" height="15" viewBox="0 0 26 15" fill="none" xmlns="http://www.w3.org/2000/svg">
<path d="M1.24975 14.0938C1.04142 13.8854 0.938989 13.6372 0.942469 13.349C0.945927 13.0608 1.04835 12.816 1.24975 12.6146L8.19769 5.65625C8.59258 5.26042 9.08193 5.0625 9.66572 5.0625C10.2495 5.0625 10.7393 5.26042 11.1352 5.65625L14.8123 9.34375L21.9998 2.17706H19.3123C19.0171 2.17706 18.7697 2.0769 18.5701 1.87656C18.3704 1.67621 18.2706 1.42794 18.2706 1.13175C18.2706 0.835584 18.3704 0.588542 18.5701 0.390625C18.7697 0.192708 19.0171 0.09375 19.3123 0.09375H24.4581C24.7532 0.09375 25.0006 0.193573 25.2003 0.393219C25.3999 0.592886 25.4998 0.840282 25.4998 1.13541V6.28125C25.4998 6.56598 25.4024 6.81077 25.2076 7.01563C25.0129 7.22048 24.7716 7.32291 24.4837 7.32291C24.1958 7.32291 23.9494 7.22048 23.7446 7.01563C23.5397 6.81077 23.4373 6.56598 23.4373 6.28125V3.67706L16.2602 10.8333C15.8652 11.2292 15.3759 11.4271 14.7921 11.4271C14.2083 11.4271 13.7185 11.2292 13.3227 10.8333L9.64559 7.17706L2.72891 14.0938C2.52751 14.2951 2.28098 14.3958 1.98931 14.3958C1.69767 14.3958 1.45115 14.2951 1.24975 14.0938Z" fill="#94265C"/>
</svg>
