<svg width="27" height="25" viewBox="0 0 27 25" fill="none" xmlns="http://www.w3.org/2000/svg">
<path d="M6.58368 24.25V8.16666L13.7711 0.729157C14.0642 0.430552 14.411 0.255208 14.8115 0.203125C15.212 0.151042 15.5979 0.229167 15.9691 0.4375C16.3371 0.645833 16.6114 0.934031 16.792 1.30209C16.9725 1.67014 17.0156 2.05207 16.9212 2.44791L15.6462 8.16666H24.5628C25.1184 8.16666 25.6045 8.37499 26.0212 8.79166C26.4378 9.20832 26.6462 9.69444 26.6462 10.25V12.7883C26.6462 12.9364 26.6497 13.0903 26.6566 13.25C26.6635 13.4097 26.6392 13.5625 26.5837 13.7083L22.7087 22.6875C22.5229 23.1215 22.2132 23.4905 21.7796 23.7943C21.3461 24.0981 20.8918 24.25 20.417 24.25H6.58368ZM8.66699 9.04166V22.1667H20.6878L24.5628 13.0208V10.25H13.042L14.7087 2.77081L8.66699 9.04166ZM2.56284 24.25C1.98992 24.25 1.49946 24.046 1.09146 23.638C0.683482 23.2301 0.479492 22.7396 0.479492 22.1667V10.25C0.479492 9.67708 0.683492 9.18664 1.09149 8.77866C1.49947 8.37066 1.98992 8.16666 2.56284 8.16666H6.58368V10.25H2.56284V22.1667H6.58368V24.25H2.56284Z" fill="#94265C"/>
</svg>
