<svg width="29" height="29" viewBox="0 0 29 29" fill="none" xmlns="http://www.w3.org/2000/svg">
<path d="M23.2263 18.4491L20.1571 18.0986C19.42 18.0141 18.695 18.2678 18.1755 18.7874L15.9521 21.0107C12.5325 19.2707 9.72921 16.4795 7.98921 13.0478L10.2246 10.8124C10.7442 10.2928 10.998 9.56781 10.9134 8.83072L10.563 5.78572C10.418 4.56531 9.39087 3.64697 8.15837 3.64697H6.06796C4.70254 3.64697 3.56671 4.78281 3.65129 6.14822C4.29171 16.4674 12.5446 24.7082 22.8517 25.3486C24.2171 25.4332 25.353 24.2974 25.353 22.932V20.8416C25.365 19.6211 24.4467 18.5941 23.2263 18.4491Z" fill="#632041"/>
</svg>
