<svg width="27" height="24" viewBox="0 0 27 24" fill="none" xmlns="http://www.w3.org/2000/svg">
<path d="M23.4167 2.08331H2.58331V17.9167H14.4583V20H2.58331C2.02081 20 1.53297 19.7934 1.11978 19.3802C0.706594 18.967 0.5 18.4792 0.5 17.9167V2.08331C0.5 1.52081 0.706594 1.03297 1.11978 0.619781C1.53297 0.206594 2.02081 0 2.58331 0H23.4167C23.9792 0 24.467 0.206594 24.8802 0.619781C25.2934 1.03297 25.5 1.52081 25.5 2.08331V11.4583H23.4167V2.08331ZM2.58331 2.08331V17.9167V11.4583V11.5729V2.08331ZM13 8.70834L23.4167 2.08331V4.06247L13.5521 10.4271C13.3785 10.5382 13.1962 10.5938 13.0052 10.5938C12.8142 10.5938 12.6285 10.5382 12.4479 10.4271L2.58331 4.20831V2.08331L13 8.70834ZM22.7604 20H17.5833C17.2882 20 17.0408 19.8998 16.8411 19.6995C16.6415 19.4991 16.5417 19.2509 16.5417 18.9547C16.5417 18.6585 16.6415 18.4115 16.8411 18.2136C17.0408 18.0156 17.2882 17.9167 17.5833 17.9167H22.7604L21.2813 16.4375C21.0729 16.2292 20.974 15.9861 20.9844 15.7083C20.9948 15.4306 21.1042 15.1848 21.3125 14.971C21.5208 14.7751 21.7639 14.6754 22.0417 14.6719C22.3195 14.6684 22.5625 14.7709 22.7708 14.9792L26.0208 18.2292C26.2292 18.4375 26.3333 18.6806 26.3333 18.9583C26.3333 19.2361 26.2292 19.4792 26.0208 19.6875L22.7708 22.9375C22.5695 23.1389 22.3281 23.2413 22.0469 23.2448C21.7656 23.2483 21.5208 23.1458 21.3125 22.9375C21.1111 22.7361 21.0139 22.4931 21.0208 22.2083C21.0278 21.9236 21.125 21.6806 21.3125 21.4792L22.7604 20Z" fill="#94265C"/>
</svg>
