<svg width="18" height="28" viewBox="0 0 18 28" fill="none" xmlns="http://www.w3.org/2000/svg">
<path d="M9 6.375C8.63698 6.375 8.33269 6.25222 8.08712 6.00666C7.84154 5.76107 7.71875 5.45677 7.71875 5.09375C7.71875 4.73073 7.84154 4.42643 8.08712 4.18084C8.33269 3.93528 8.63698 3.8125 9 3.8125C9.36302 3.8125 9.66731 3.93528 9.91288 4.18084C10.1585 4.42643 10.2812 4.73073 10.2812 5.09375C10.2812 5.45677 10.1585 5.76107 9.91288 6.00666C9.66731 6.25222 9.36302 6.375 9 6.375ZM9 2.5625C8.63698 2.5625 8.33269 2.43972 8.08712 2.19416C7.84154 1.94857 7.71875 1.64427 7.71875 1.28125C7.71875 0.918229 7.84154 0.613927 8.08712 0.368343C8.33269 0.122781 8.63698 0 9 0C9.36302 0 9.66731 0.122781 9.91288 0.368343C10.1585 0.613927 10.2812 0.918229 10.2812 1.28125C10.2812 1.64427 10.1585 1.94857 9.91288 2.19416C9.66731 2.43972 9.36302 2.5625 9 2.5625ZM4.28125 27.5C3.03615 26.7417 2.06342 25.724 1.36306 24.4469C0.662687 23.1698 0.291667 21.7917 0.25 20.3125C0.270833 18.6458 0.734375 17.1198 1.64062 15.7344C2.54688 14.349 3.75 13.3021 5.25 12.5937V8.5625C5.25 8.29687 5.33984 8.07422 5.51953 7.89453C5.69922 7.71484 5.92188 7.625 6.1875 7.625H11.8125C12.0781 7.625 12.3008 7.71484 12.4805 7.89453C12.6602 8.07422 12.75 8.29687 12.75 8.5625V12.5937C14.25 13.3229 15.4479 14.375 16.3438 15.75C17.2396 17.125 17.7083 18.6458 17.75 20.3125C17.7292 21.7917 17.3646 23.1667 16.6562 24.4375C15.9479 25.7083 14.9688 26.7292 13.7188 27.5H4.28125ZM4.84375 25.625H13.1562C14.0104 25 14.6771 24.2255 15.1562 23.3015C15.6354 22.3776 15.875 21.3812 15.875 20.3125C15.875 19.0418 15.5365 17.8752 14.8594 16.8126C14.1823 15.75 13.2708 14.9479 12.125 14.4062L10.875 13.8125V9.5H7.125V13.8125L5.875 14.4062C4.72917 14.9479 3.81771 15.7513 3.14062 16.8165C2.46354 17.8817 2.125 19.0512 2.125 20.325C2.125 21.3792 2.36458 22.3698 2.84375 23.2969C3.32292 24.224 3.98958 25 4.84375 25.625ZM2.75 3.8125C2.38698 3.8125 2.08269 3.68972 1.83712 3.44416C1.59154 3.19857 1.46875 2.89427 1.46875 2.53125C1.46875 2.16823 1.59154 1.86393 1.83712 1.61834C2.08269 1.37278 2.38698 1.25 2.75 1.25C3.11302 1.25 3.41731 1.37278 3.66288 1.61834C3.90846 1.86393 4.03125 2.16823 4.03125 2.53125C4.03125 2.89427 3.90846 3.19857 3.66288 3.44416C3.41731 3.68972 3.11302 3.8125 2.75 3.8125ZM15.25 3.8125C14.887 3.8125 14.5827 3.68972 14.3371 3.44416C14.0915 3.19857 13.9688 2.89427 13.9688 2.53125C13.9688 2.16823 14.0915 1.86393 14.3371 1.61834C14.5827 1.37278 14.887 1.25 15.25 1.25C15.613 1.25 15.9173 1.37278 16.1629 1.61834C16.4085 1.86393 16.5312 2.16823 16.5312 2.53125C16.5312 2.89427 16.4085 3.19857 16.1629 3.44416C15.9173 3.68972 15.613 3.8125 15.25 3.8125ZM5.25 6.375C4.88698 6.375 4.58269 6.25222 4.33712 6.00666C4.09154 5.76107 3.96875 5.45677 3.96875 5.09375C3.96875 4.73073 4.09154 4.42643 4.33712 4.18084C4.58269 3.93528 4.88698 3.8125 5.25 3.8125C5.61302 3.8125 5.91731 3.93528 6.16288 4.18084C6.40846 4.42643 6.53125 4.73073 6.53125 5.09375C6.53125 5.45677 6.40846 5.76107 6.16288 6.00666C5.91731 6.25222 5.61302 6.375 5.25 6.375ZM12.75 6.375C12.387 6.375 12.0827 6.25222 11.8371 6.00666C11.5915 5.76107 11.4688 5.45677 11.4688 5.09375C11.4688 4.73073 11.5915 4.42643 11.8371 4.18084C12.0827 3.93528 12.387 3.8125 12.75 3.8125C13.113 3.8125 13.4173 3.93528 13.6629 4.18084C13.9085 4.42643 14.0312 4.73073 14.0312 5.09375C14.0312 5.45677 13.9085 5.76107 13.6629 6.00666C13.4173 6.25222 13.113 6.375 12.75 6.375Z" fill="#94265C"/>
</svg>
