<svg width="19" height="16" viewBox="0 0 19 16" fill="none" xmlns="http://www.w3.org/2000/svg">
<path d="M7.47539 15.0621C6.93914 15.0621 7.03539 14.8559 6.84289 14.3471L5.27539 9.17711L15.0104 3.09961L16.1516 3.40211L15.2029 5.98711L7.47539 15.0621Z" fill="#C8DAEA"/>
<path d="M7.47461 15.0629C7.88711 15.0629 8.06586 14.8704 8.29961 14.6504C8.65711 14.3066 13.2496 9.83789 13.2496 9.83789L10.4309 9.15039L7.81836 10.8004L7.47461 14.9254V15.0629Z" fill="#A9C9DD"/>
<path d="M7.75016 10.8558L14.4052 15.7646C15.1614 16.1771 15.7114 15.9708 15.9039 15.0633L18.6127 2.30329C18.8877 1.18954 18.1864 0.694543 17.4577 1.02454L1.56266 7.15705C0.476409 7.59705 0.490159 8.20205 1.37016 8.4633L5.45391 9.74205L14.9002 3.7883C15.3402 3.5133 15.7527 3.66455 15.4227 3.96705L7.75016 10.8558Z" fill="url(#paint0_linear_610_181)"/>
<defs>
<linearGradient id="paint0_linear_610_181" x1="11.7364" y1="8.01711" x2="15.1739" y2="13.5171" gradientUnits="userSpaceOnUse">
<stop stop-color="#EFF7FC"/>
<stop offset="1" stop-color="white"/>
</linearGradient>
</defs>
</svg>
