<svg width="23" height="23" viewBox="0 0 23 23" fill="none" xmlns="http://www.w3.org/2000/svg">
<path d="M19.6008 3.48487C17.537 1.41931 14.7923 0.28119 11.868 0.280029C5.84275 0.280029 0.938918 5.18199 0.936506 11.2073C0.935732 13.1333 1.43909 15.0134 2.39568 16.6705L0.844849 22.3334L6.63978 20.8138C8.23646 21.6844 10.0341 22.1432 11.8637 22.1439H11.8682C17.8928 22.1439 22.7971 17.2414 22.7995 11.216C22.8007 8.29607 21.6647 5.55044 19.6008 3.48487ZM11.8682 20.2983H11.8644C10.2341 20.2977 8.63503 19.8598 7.24004 19.0323L6.90824 18.8354L3.46944 19.7372L4.38733 16.3855L4.17124 16.0418C3.26174 14.5957 2.78139 12.9242 2.78211 11.208C2.78407 6.20005 6.85998 2.12569 11.8717 2.12569C14.2984 2.12661 16.5797 3.07267 18.2951 4.78946C20.0106 6.50625 20.9547 8.78835 20.9538 11.2153C20.9519 16.2237 16.876 20.2983 11.8682 20.2983ZM16.8519 13.4957C16.5787 13.359 15.2359 12.6984 14.9855 12.6073C14.7351 12.5161 14.5531 12.4706 14.3709 12.744C14.1889 13.0173 13.6654 13.6324 13.506 13.8146C13.3467 13.9968 13.1874 14.0196 12.9143 13.8829C12.6411 13.7463 11.761 13.4579 10.7177 12.5277C9.9058 11.8038 9.35758 10.9095 9.19826 10.6361C9.03893 10.3627 9.18132 10.215 9.31805 10.0788C9.4409 9.95651 9.59118 9.75992 9.72775 9.60048C9.8643 9.44107 9.90985 9.32711 10.0009 9.1449C10.0919 8.96265 10.0464 8.80318 9.97811 8.66651C9.90985 8.52984 9.36356 7.18584 9.13595 6.63914C8.91426 6.1067 8.68903 6.17874 8.52138 6.17037C8.36223 6.16245 8.17996 6.16079 7.99789 6.16079C7.81583 6.16079 7.5199 6.22911 7.26954 6.50247C7.01919 6.77584 6.31358 7.43644 6.31358 8.78041C6.31358 10.1244 7.29228 11.4228 7.42886 11.605C7.56544 11.7873 9.35487 14.5453 12.0948 15.728C12.7465 16.0094 13.2553 16.1774 13.652 16.3032C14.3063 16.511 14.9017 16.4817 15.3724 16.4114C15.8972 16.333 16.9884 15.7509 17.2161 15.1131C17.4437 14.4752 17.4437 13.9285 17.3754 13.8146C17.3071 13.7007 17.125 13.6324 16.8519 13.4957Z" fill="white"/>
</svg>
